# xmcd CD database file
#
# Track frame offsets:
#	150
#	13389
#	31295
#	51792
#	62755
#	80816
#	90498
#	116685
#	132370
#	161830
#	175794
#	193768
#	211666
#
# Disc length: 3041 seconds
#
# Revision: 0
# Processed by: cddbd v1.5.2PL0 Copyright (c) Steve Scherf et al.
# Submitted via: CDex 1.51
#
DISCID=b30bdf0d
DTITLE=Ignaz Netzer - When The Music Is Over
DYEAR=2015
DGENRE=Blues
TTITLE0=Rockin' My Blues Away
TTITLE1=Stay By Me
TTITLE2=I`m In The Mood For A Hot Woman And A Cold Beer
TTITLE3=Tomcat Willy Left His Home
TTITLE4=Talk To Me Before You Go
TTITLE5=Got The Blues Can`t Be Satisfied
TTITLE6=Train To Coleraine
TTITLE7=Bessie Please Come Home
TTITLE8=These Damm Dark Days Don`t Disappear
TTITLE9=Bye-Bye Baby Blues
TTITLE10=How Long Must This Story Go On ?
TTITLE11=Brown Monkeys
TTITLE12=When The Music Is Over
EXTD=YEAR: 2015
EXTT0=
EXTT1=
EXTT2=
EXTT3=
EXTT4=
EXTT5=
EXTT6=
EXTT7=
EXTT8=
EXTT9=
EXTT10=
EXTT11=
EXTT12=
PLAYORDER=
